<svg width="161" height="76" viewBox="0 0 161 76" fill="none" xmlns="http://www.w3.org/2000/svg">
<path d="M6.76484 2C7.16484 2 7.51484 2.15 7.81484 2.45C8.14818 2.75 8.31484 3.11666 8.31484 3.55V35.45C8.28151 35.8833 8.09818 36.25 7.76484 36.55C7.46484 36.85 7.11484 37 6.71484 37C6.24818 37 5.86484 36.85 5.56484 36.55C5.29818 36.25 5.16484 35.8833 5.16484 35.45V3.55C5.16484 3.11666 5.31484 2.75 5.61484 2.45C5.91484 2.15 6.29818 2 6.76484 2ZM30.2148 2C30.6815 2 31.0482 2.15 31.3148 2.45C31.6148 2.75 31.7648 3.11666 31.7648 3.55V35.45C31.7315 35.8833 31.5648 36.25 31.2648 36.55C30.9982 36.85 30.6315 37 30.1648 37C29.7315 37 29.3648 36.85 29.0648 36.55C28.7648 36.25 28.6148 35.8833 28.6148 35.45V3.55C28.6148 3.11666 28.7648 2.75 29.0648 2.45C29.3982 2.15 29.7815 2 30.2148 2ZM6.51484 17.65H30.2648L30.2148 20.55H6.31484L6.51484 17.65ZM41.3012 35.5C41.3012 35.9 41.1512 36.25 40.8512 36.55C40.5512 36.85 40.2012 37 39.8012 37C39.3678 37 39.0012 36.85 38.7012 36.55C38.4345 36.25 38.3012 35.9 38.3012 35.5V12.5C38.3012 12.1 38.4345 11.75 38.7012 11.45C39.0012 11.15 39.3678 11 39.8012 11C40.2345 11 40.5845 11.15 40.8512 11.45C41.1512 11.75 41.3012 12.1 41.3012 12.5V35.5ZM39.8012 7.65C39.1012 7.65 38.5678 7.5 38.2012 7.2C37.8678 6.86667 37.7012 6.4 37.7012 5.8V5.3C37.7012 4.7 37.8845 4.25 38.2512 3.95C38.6512 3.61667 39.1845 3.45 39.8512 3.45C40.4845 3.45 40.9678 3.61667 41.3012 3.95C41.6678 4.25 41.8512 4.7 41.8512 5.3V5.8C41.8512 6.4 41.6678 6.86667 41.3012 7.2C40.9678 7.5 40.4678 7.65 39.8012 7.65ZM48.8945 37C48.4612 37 48.0945 36.85 47.7945 36.55C47.5279 36.25 47.3945 35.9 47.3945 35.5V1.5C47.3945 1.1 47.5279 0.749998 47.7945 0.45C48.0945 0.15 48.4612 -4.76837e-07 48.8945 -4.76837e-07C49.3279 -4.76837e-07 49.6779 0.15 49.9445 0.45C50.2445 0.749998 50.3945 1.1 50.3945 1.5V35.5C50.3945 35.9 50.2445 36.25 49.9445 36.55C49.6779 36.85 49.3279 37 48.8945 37ZM65.8945 11.35C66.2612 11.35 66.5945 11.5167 66.8945 11.85C67.1945 12.15 67.3445 12.4833 67.3445 12.85C67.3445 13.2833 67.1612 13.6667 66.7945 14L49.9945 28.3L49.8445 24.75L64.8445 11.85C65.1445 11.5167 65.4945 11.35 65.8945 11.35ZM66.2945 37C65.8612 37 65.4945 36.8167 65.1945 36.45L53.7945 24.35L56.0445 22.3L67.3445 34.35C67.6445 34.6833 67.7945 35.0667 67.7945 35.5C67.7945 35.9667 67.6112 36.3333 67.2445 36.6C66.8779 36.8667 66.5612 37 66.2945 37ZM83.3523 11.25C85.419 11.25 87.1857 11.8 88.6523 12.9C90.119 13.9667 91.119 15.5667 91.6523 17.7L90.9523 17.9L91.2523 17C91.6857 16 92.4023 15.0667 93.4023 14.2C94.4357 13.3 95.6023 12.5833 96.9023 12.05C98.2023 11.5167 99.519 11.25 100.852 11.25C102.952 11.25 104.636 11.7 105.902 12.6C107.202 13.5 108.136 14.7167 108.702 16.25C109.302 17.75 109.602 19.45 109.602 21.35V35.5C109.602 35.9 109.452 36.25 109.152 36.55C108.886 36.85 108.536 37 108.102 37C107.669 37 107.302 36.85 107.002 36.55C106.736 36.25 106.602 35.9 106.602 35.5V21.5C106.602 20.1333 106.386 18.8833 105.952 17.75C105.519 16.6167 104.836 15.7167 103.902 15.05C102.969 14.3833 101.719 14.05 100.152 14.05C98.7857 14.05 97.469 14.3833 96.2023 15.05C94.969 15.7167 93.9523 16.6167 93.1523 17.75C92.3857 18.8833 92.0023 20.1333 92.0023 21.5V35.5C92.0023 35.9 91.8523 36.25 91.5523 36.55C91.2857 36.85 90.9357 37 90.5023 37C90.069 37 89.7023 36.85 89.4023 36.55C89.1357 36.25 89.0023 35.9 89.0023 35.5V21.35C89.0023 19.9833 88.8023 18.75 88.4023 17.65C88.0023 16.55 87.3523 15.6833 86.4523 15.05C85.5523 14.3833 84.3357 14.05 82.8023 14.05C81.4357 14.05 80.1357 14.3833 78.9023 15.05C77.7023 15.6833 76.719 16.55 75.9523 17.65C75.219 18.75 74.8523 19.9833 74.8523 21.35V35.5C74.8523 35.9 74.7023 36.25 74.4023 36.55C74.1023 36.85 73.7523 37 73.3523 37C72.8857 37 72.519 36.85 72.2523 36.55C71.9857 36.25 71.8523 35.9 71.8523 35.5V13.1C71.8523 12.7 71.9857 12.35 72.2523 12.05C72.5523 11.75 72.919 11.6 73.3523 11.6C73.7857 11.6 74.1357 11.75 74.4023 12.05C74.7023 12.35 74.8523 12.7 74.8523 13.1V17.75L73.5023 19.6C73.6023 18.6 73.919 17.6 74.4523 16.6C75.019 15.6 75.7523 14.7 76.6523 13.9C77.5523 13.1 78.569 12.4667 79.7023 12C80.869 11.5 82.0857 11.25 83.3523 11.25ZM136.408 11.45C136.841 11.45 137.191 11.6 137.458 11.9C137.758 12.2 137.908 12.5667 137.908 13V35.5C137.908 35.9 137.758 36.25 137.458 36.55C137.158 36.85 136.808 37 136.408 37C135.974 37 135.608 36.85 135.308 36.55C135.041 36.25 134.908 35.9 134.908 35.5V29.55L135.758 29.15C135.758 30.0833 135.491 31.0333 134.958 32C134.458 32.9667 133.758 33.8667 132.858 34.7C131.958 35.5333 130.891 36.2167 129.658 36.75C128.458 37.25 127.158 37.5 125.758 37.5C123.491 37.5 121.458 36.9167 119.658 35.75C117.891 34.5833 116.491 32.9833 115.458 30.95C114.458 28.9167 113.958 26.6333 113.958 24.1C113.958 21.5 114.474 19.2167 115.508 17.25C116.541 15.25 117.941 13.6833 119.708 12.55C121.474 11.4167 123.474 10.85 125.708 10.85C127.141 10.85 128.474 11.1 129.708 11.6C130.974 12.1 132.074 12.7833 133.008 13.65C133.941 14.5167 134.658 15.5167 135.158 16.65C135.691 17.75 135.958 18.9 135.958 20.1L134.908 19.35V13C134.908 12.5667 135.041 12.2 135.308 11.9C135.608 11.6 135.974 11.45 136.408 11.45ZM126.008 34.7C127.774 34.7 129.341 34.25 130.708 33.35C132.074 32.4167 133.141 31.15 133.908 29.55C134.708 27.9167 135.108 26.1 135.108 24.1C135.108 22.1333 134.708 20.3667 133.908 18.8C133.141 17.2333 132.074 15.9833 130.708 15.05C129.341 14.1167 127.774 13.65 126.008 13.65C124.274 13.65 122.708 14.1 121.308 15C119.941 15.9 118.858 17.1333 118.058 18.7C117.291 20.2667 116.908 22.0667 116.908 24.1C116.908 26.1 117.291 27.9167 118.058 29.55C118.858 31.15 119.941 32.4167 121.308 33.35C122.674 34.25 124.241 34.7 126.008 34.7ZM155.852 37C155.285 37 154.852 36.8167 154.552 36.45C154.252 36.0833 154.102 35.6167 154.102 35.05V34C154.102 33.4 154.252 32.9333 154.552 32.6C154.852 32.2667 155.285 32.1 155.852 32.1H156.202C156.769 32.1 157.202 32.2667 157.502 32.6C157.802 32.9333 157.952 33.4 157.952 34V35.05C157.952 35.6167 157.802 36.0833 157.502 36.45C157.202 36.8167 156.769 37 156.202 37H155.852Z" fill="#1D9EB2"/>
<path d="M69.4497 51.535C69.4397 51.665 69.3847 51.775 69.2847 51.865C69.1947 51.955 69.0897 52 68.9697 52C68.8297 52 68.7147 51.955 68.6247 51.865C68.5447 51.775 68.5047 51.665 68.5047 51.535V41.965C68.5047 41.835 68.5497 41.725 68.6397 41.635C68.7297 41.545 68.8447 41.5 68.9847 41.5C69.1047 41.5 69.2097 41.545 69.2997 41.635C69.3997 41.725 69.4497 41.835 69.4497 41.965V51.535ZM85.6447 44.155C86.3047 44.155 86.8297 44.29 87.2197 44.56C87.6197 44.82 87.9047 45.18 88.0747 45.64C88.2547 46.09 88.3447 46.59 88.3447 47.14V51.55C88.3447 51.67 88.2997 51.775 88.2097 51.865C88.1197 51.955 88.0147 52 87.8947 52C87.7547 52 87.6447 51.955 87.5647 51.865C87.4847 51.775 87.4447 51.67 87.4447 51.55V47.185C87.4447 46.785 87.3797 46.42 87.2497 46.09C87.1197 45.76 86.9047 45.495 86.6047 45.295C86.3147 45.095 85.9297 44.995 85.4497 44.995C85.0197 44.995 84.6097 45.095 84.2197 45.295C83.8397 45.495 83.5297 45.76 83.2897 46.09C83.0497 46.42 82.9297 46.785 82.9297 47.185V51.55C82.9297 51.67 82.8847 51.775 82.7947 51.865C82.7047 51.955 82.5997 52 82.4797 52C82.3397 52 82.2297 51.955 82.1497 51.865C82.0697 51.775 82.0297 51.67 82.0297 51.55V44.83C82.0297 44.71 82.0697 44.605 82.1497 44.515C82.2397 44.425 82.3497 44.38 82.4797 44.38C82.6097 44.38 82.7147 44.425 82.7947 44.515C82.8847 44.605 82.9297 44.71 82.9297 44.83V46.09L82.5847 46.63C82.6047 46.31 82.7047 46.005 82.8847 45.715C83.0747 45.415 83.3147 45.15 83.6047 44.92C83.8947 44.68 84.2147 44.495 84.5647 44.365C84.9247 44.225 85.2847 44.155 85.6447 44.155ZM100.448 44.17C100.528 44.17 100.608 44.195 100.688 44.245C100.768 44.295 100.828 44.37 100.868 44.47L103.493 50.71L103.298 50.83L105.983 44.47C106.063 44.27 106.208 44.175 106.418 44.185C106.518 44.185 106.613 44.22 106.703 44.29C106.793 44.35 106.838 44.44 106.838 44.56C106.838 44.62 106.828 44.67 106.808 44.71C106.798 44.74 106.788 44.775 106.778 44.815L103.838 51.715C103.758 51.895 103.623 51.99 103.433 52C103.343 52.01 103.253 51.99 103.163 51.94C103.083 51.88 103.023 51.805 102.983 51.715L100.028 44.815C100.018 44.795 100.008 44.765 99.9984 44.725C99.9884 44.685 99.9834 44.645 99.9834 44.605C99.9834 44.495 100.023 44.395 100.103 44.305C100.183 44.215 100.298 44.17 100.448 44.17ZM121.96 52.15C121.19 52.15 120.51 51.985 119.92 51.655C119.33 51.325 118.87 50.865 118.54 50.275C118.21 49.685 118.045 48.995 118.045 48.205C118.045 47.355 118.21 46.63 118.54 46.03C118.88 45.43 119.315 44.97 119.845 44.65C120.385 44.32 120.955 44.155 121.555 44.155C121.995 44.155 122.42 44.235 122.83 44.395C123.25 44.545 123.62 44.775 123.94 45.085C124.27 45.385 124.53 45.755 124.72 46.195C124.92 46.635 125.03 47.145 125.05 47.725C125.04 47.845 124.99 47.95 124.9 48.04C124.81 48.12 124.705 48.16 124.585 48.16H118.57L118.39 47.35H124.3L124.105 47.53V47.23C124.065 46.76 123.915 46.36 123.655 46.03C123.395 45.7 123.08 45.45 122.71 45.28C122.34 45.11 121.955 45.025 121.555 45.025C121.255 45.025 120.945 45.085 120.625 45.205C120.315 45.325 120.03 45.515 119.77 45.775C119.52 46.025 119.315 46.35 119.155 46.75C118.995 47.14 118.915 47.605 118.915 48.145C118.915 48.735 119.035 49.27 119.275 49.75C119.515 50.23 119.86 50.61 120.31 50.89C120.77 51.17 121.315 51.31 121.945 51.31C122.295 51.31 122.61 51.26 122.89 51.16C123.17 51.06 123.415 50.93 123.625 50.77C123.835 50.6 124.01 50.425 124.15 50.245C124.26 50.155 124.37 50.11 124.48 50.11C124.58 50.11 124.665 50.15 124.735 50.23C124.815 50.31 124.855 50.4 124.855 50.5C124.855 50.62 124.805 50.725 124.705 50.815C124.405 51.175 124.015 51.49 123.535 51.76C123.055 52.02 122.53 52.15 121.96 52.15ZM136.541 50.785C136.461 50.665 136.421 50.55 136.421 50.44C136.431 50.32 136.496 50.225 136.616 50.155C136.696 50.085 136.786 50.055 136.886 50.065C136.996 50.075 137.096 50.125 137.186 50.215C137.456 50.565 137.781 50.85 138.161 51.07C138.551 51.28 139.011 51.385 139.541 51.385C139.821 51.385 140.096 51.34 140.366 51.25C140.646 51.15 140.876 51.005 141.056 50.815C141.236 50.615 141.326 50.365 141.326 50.065C141.326 49.755 141.236 49.505 141.056 49.315C140.876 49.125 140.641 48.975 140.351 48.865C140.071 48.755 139.771 48.66 139.451 48.58C139.111 48.49 138.781 48.39 138.461 48.28C138.141 48.16 137.856 48.015 137.606 47.845C137.366 47.665 137.171 47.45 137.021 47.2C136.871 46.95 136.796 46.645 136.796 46.285C136.796 45.865 136.911 45.495 137.141 45.175C137.371 44.855 137.681 44.605 138.071 44.425C138.471 44.245 138.921 44.155 139.421 44.155C139.671 44.155 139.941 44.19 140.231 44.26C140.521 44.32 140.806 44.425 141.086 44.575C141.366 44.725 141.616 44.93 141.836 45.19C141.926 45.28 141.971 45.385 141.971 45.505C141.971 45.615 141.921 45.715 141.821 45.805C141.741 45.865 141.646 45.895 141.536 45.895C141.436 45.895 141.351 45.855 141.281 45.775C141.041 45.505 140.756 45.3 140.426 45.16C140.096 45.02 139.741 44.95 139.361 44.95C139.071 44.95 138.796 45 138.536 45.1C138.286 45.19 138.076 45.33 137.906 45.52C137.736 45.71 137.651 45.96 137.651 46.27C137.671 46.56 137.771 46.795 137.951 46.975C138.141 47.155 138.386 47.305 138.686 47.425C138.996 47.545 139.341 47.655 139.721 47.755C140.041 47.835 140.346 47.93 140.636 48.04C140.936 48.15 141.196 48.29 141.416 48.46C141.646 48.62 141.826 48.825 141.956 49.075C142.096 49.325 142.166 49.64 142.166 50.02C142.166 50.46 142.041 50.84 141.791 51.16C141.551 51.48 141.226 51.725 140.816 51.895C140.406 52.065 139.951 52.15 139.451 52.15C138.911 52.15 138.386 52.045 137.876 51.835C137.376 51.625 136.931 51.275 136.541 50.785ZM153.512 44.365H157.007C157.127 44.365 157.227 44.41 157.307 44.5C157.387 44.58 157.427 44.68 157.427 44.8C157.427 44.91 157.387 45.005 157.307 45.085C157.227 45.165 157.127 45.205 157.007 45.205H153.512C153.392 45.205 153.287 45.165 153.197 45.085C153.117 44.995 153.077 44.895 153.077 44.785C153.077 44.665 153.117 44.565 153.197 44.485C153.287 44.405 153.392 44.365 153.512 44.365ZM155.057 42.25C155.187 42.25 155.292 42.295 155.372 42.385C155.462 42.475 155.507 42.58 155.507 42.7V50.23C155.507 50.51 155.542 50.72 155.612 50.86C155.692 51 155.792 51.095 155.912 51.145C156.032 51.185 156.152 51.205 156.272 51.205C156.352 51.205 156.422 51.195 156.482 51.175C156.552 51.145 156.627 51.13 156.707 51.13C156.797 51.13 156.872 51.165 156.932 51.235C157.002 51.305 157.037 51.395 157.037 51.505C157.037 51.645 156.957 51.765 156.797 51.865C156.637 51.955 156.447 52 156.227 52C156.137 52 156.002 51.995 155.822 51.985C155.642 51.965 155.457 51.91 155.267 51.82C155.077 51.72 154.917 51.55 154.787 51.31C154.667 51.07 154.607 50.725 154.607 50.275V42.7C154.607 42.58 154.647 42.475 154.727 42.385C154.817 42.295 154.927 42.25 155.057 42.25Z" fill="black"/>
</svg>
