<svg width="1110" height="530" viewBox="0 0 1110 530" fill="none" xmlns="http://www.w3.org/2000/svg">
<g clip-path="url(#clip0_4648_22571)">
<path d="M0 526H1110" stroke="black" stroke-width="2" stroke-linecap="round"/>
<path d="M11 526L11 80" stroke="black" stroke-opacity="0.1" stroke-linecap="round" stroke-dasharray="5 10"/>
<circle cx="10.5" cy="525.5" r="1.5" fill="black" stroke="black" stroke-width="2"/>
<path d="M120 526L120 80" stroke="black" stroke-opacity="0.1" stroke-linecap="round" stroke-dasharray="5 10"/>
<circle cx="119.5" cy="525.5" r="1.5" fill="black" stroke="black" stroke-width="2"/>
<path d="M228 526L228 80" stroke="black" stroke-opacity="0.1" stroke-linecap="round" stroke-dasharray="5 10"/>
<circle cx="228.5" cy="525.5" r="1.5" fill="black" stroke="black" stroke-width="2"/>
<path d="M338 526L338 80" stroke="black" stroke-opacity="0.1" stroke-linecap="round" stroke-dasharray="5 10"/>
<circle cx="337.5" cy="525.5" r="1.5" fill="black" stroke="black" stroke-width="2"/>
<path d="M446 526L446 80" stroke="black" stroke-opacity="0.1" stroke-linecap="round" stroke-dasharray="5 10"/>
<circle cx="446.5" cy="525.5" r="1.5" fill="black" stroke="black" stroke-width="2"/>
<path d="M556 526L556 80" stroke="black" stroke-opacity="0.1" stroke-linecap="round" stroke-dasharray="5 10"/>
<circle cx="555.5" cy="525.5" r="1.5" fill="black" stroke="black" stroke-width="2"/>
<path d="M664 526L664 80" stroke="black" stroke-opacity="0.1" stroke-linecap="round" stroke-dasharray="5 10"/>
<circle cx="664.5" cy="525.5" r="1.5" fill="black" stroke="black" stroke-width="2"/>
<path d="M774 526L774 80" stroke="black" stroke-opacity="0.1" stroke-linecap="round" stroke-dasharray="5 10"/>
<circle cx="773.5" cy="525.5" r="1.5" fill="black" stroke="black" stroke-width="2"/>
<path d="M882 526L882 80" stroke="black" stroke-opacity="0.1" stroke-linecap="round" stroke-dasharray="5 10"/>
<circle cx="882.5" cy="525.5" r="1.5" fill="black" stroke="black" stroke-width="2"/>
<path d="M992 526L992 80" stroke="black" stroke-opacity="0.1" stroke-linecap="round" stroke-dasharray="5 10"/>
<circle cx="991.5" cy="525.5" r="1.5" fill="black" stroke="black" stroke-width="2"/>
<path d="M1100 526L1100 80" stroke="black" stroke-opacity="0.1" stroke-linecap="round" stroke-dasharray="5 10"/>
<circle cx="1100.5" cy="525.5" r="1.5" fill="black" stroke="black" stroke-width="2"/>
<path d="M120 528L120 513" stroke="black" stroke-width="2" stroke-linecap="round"/>
<path opacity="0.5" d="M6 513C597.497 513 873.529 510.5 1096.98 490" stroke="#989BA9" stroke-width="12" stroke-linecap="round"/>
<path d="M6 513C41.8031 513 76.4503 512.991 110 512.969" stroke="#989BA9" stroke-width="12" stroke-linecap="round"/>
<path d="M131.523 514.5C131.523 520.021 127.042 524.5 121.511 524.5C115.98 524.5 111.5 520.021 111.5 514.5C111.5 508.979 115.98 504.5 121.511 504.5C127.042 504.5 131.523 508.979 131.523 514.5Z" fill="white" stroke="#989BA9" stroke-width="5"/>
<path opacity="0.3" d="M6 513C609.972 513 931.264 467 1096.98 371" stroke="black" stroke-width="12" stroke-linecap="round"/>
<path d="M6 513C42.3479 513 77.672 512.833 112 512.499" stroke="black" stroke-width="12" stroke-linecap="round"/>
<path d="M131.523 512.5C131.523 518.021 127.042 522.5 121.511 522.5C115.98 522.5 111.5 518.021 111.5 512.5C111.5 506.979 115.98 502.5 121.511 502.5C127.042 502.5 131.523 506.979 131.523 512.5Z" fill="white" stroke="black" stroke-width="5"/>
<path opacity="0.3" d="M6 513C607.298 513 1023.81 346 1096.98 117" stroke="#0000FF" stroke-width="12" stroke-linecap="round"/>
<path d="M6 513C41.3148 513 75.9921 512.424 110 511.293" stroke="#0000FF" stroke-width="12" stroke-linecap="round"/>
<path d="M131.523 512.5C131.523 518.021 127.042 522.5 121.511 522.5C115.98 522.5 111.5 518.021 111.5 512.5C111.5 506.979 115.98 502.5 121.511 502.5C127.042 502.5 131.523 506.979 131.523 512.5Z" fill="white" stroke="#0000FF" stroke-width="5"/>
</g>
<defs>
<clipPath id="clip0_4648_22571">
<rect width="1110" height="530" fill="white"/>
</clipPath>
</defs>
</svg>
