<svg width="1110" height="530" viewBox="0 0 1110 530" fill="none" xmlns="http://www.w3.org/2000/svg">
<g clip-path="url(#clip0_4648_22566)">
<path d="M0 526H1110" stroke="black" stroke-width="2" stroke-linecap="round"/>
<path d="M11 526L11 80" stroke="black" stroke-opacity="0.1" stroke-linecap="round" stroke-dasharray="5 10"/>
<circle cx="10.5" cy="525.5" r="1.5" fill="black" stroke="black" stroke-width="2"/>
<path d="M120 526L120 80" stroke="black" stroke-opacity="0.1" stroke-linecap="round" stroke-dasharray="5 10"/>
<circle cx="119.5" cy="525.5" r="1.5" fill="black" stroke="black" stroke-width="2"/>
<path d="M228 526L228 80" stroke="black" stroke-opacity="0.1" stroke-linecap="round" stroke-dasharray="5 10"/>
<circle cx="228.5" cy="525.5" r="1.5" fill="black" stroke="black" stroke-width="2"/>
<path d="M338 526L338 80" stroke="black" stroke-opacity="0.1" stroke-linecap="round" stroke-dasharray="5 10"/>
<circle cx="337.5" cy="525.5" r="1.5" fill="black" stroke="black" stroke-width="2"/>
<path d="M446 526L446 80" stroke="black" stroke-opacity="0.1" stroke-linecap="round" stroke-dasharray="5 10"/>
<circle cx="446.5" cy="525.5" r="1.5" fill="black" stroke="black" stroke-width="2"/>
<path d="M556 526L556 80" stroke="black" stroke-opacity="0.1" stroke-linecap="round" stroke-dasharray="5 10"/>
<circle cx="555.5" cy="525.5" r="1.5" fill="black" stroke="black" stroke-width="2"/>
<path d="M664 526L664 80" stroke="black" stroke-opacity="0.1" stroke-linecap="round" stroke-dasharray="5 10"/>
<circle cx="664.5" cy="525.5" r="1.5" fill="black" stroke="black" stroke-width="2"/>
<path d="M774 526L774 80" stroke="black" stroke-opacity="0.1" stroke-linecap="round" stroke-dasharray="5 10"/>
<circle cx="773.5" cy="525.5" r="1.5" fill="black" stroke="black" stroke-width="2"/>
<path d="M882 526L882 80" stroke="black" stroke-opacity="0.1" stroke-linecap="round" stroke-dasharray="5 10"/>
<circle cx="882.5" cy="525.5" r="1.5" fill="black" stroke="black" stroke-width="2"/>
<path d="M992 526L992 80" stroke="black" stroke-opacity="0.1" stroke-linecap="round" stroke-dasharray="5 10"/>
<circle cx="991.5" cy="525.5" r="1.5" fill="black" stroke="black" stroke-width="2"/>
<path d="M1100 526L1100 80" stroke="black" stroke-opacity="0.1" stroke-linecap="round" stroke-dasharray="5 10"/>
<circle cx="1100.5" cy="525.5" r="1.5" fill="black" stroke="black" stroke-width="2"/>
<path d="M448 527L448 481" stroke="black" stroke-width="2" stroke-linecap="round"/>
<path opacity="0.5" d="M6 513C597.497 513 873.529 510.5 1096.98 490" stroke="#989BA9" stroke-width="12" stroke-linecap="round"/>
<path d="M6 513C174.602 513 317.572 512.796 441 512.031" stroke="#989BA9" stroke-width="12" stroke-linecap="round"/>
<path d="M458.523 510.5C458.523 516.021 454.042 520.5 448.511 520.5C442.98 520.5 438.5 516.021 438.5 510.5C438.5 504.979 442.98 500.5 448.511 500.5C454.042 500.5 458.523 504.979 458.523 510.5Z" fill="white" stroke="#989BA9" stroke-width="5"/>
<path opacity="0.3" d="M6 513C609.972 513 931.264 467 1096.98 371" stroke="black" stroke-width="12" stroke-linecap="round"/>
<path d="M6 513C171.307 513 315.439 509.554 441 502.58" stroke="black" stroke-width="12" stroke-linecap="round"/>
<path d="M458.523 501.5C458.523 507.021 454.042 511.5 448.511 511.5C442.98 511.5 438.5 507.021 438.5 501.5C438.5 495.979 442.98 491.5 448.511 491.5C454.042 491.5 458.523 495.979 458.523 501.5Z" fill="white" stroke="black" stroke-width="5"/>
<path opacity="0.3" d="M6 513C607.298 513 1023.81 346 1096.98 117" stroke="#0000FF" stroke-width="12" stroke-linecap="round"/>
<path d="M6 513C164.875 513 310.85 501.341 441 479.961" stroke="#0000FF" stroke-width="12" stroke-linecap="round"/>
<path d="M458.523 478.5C458.523 484.021 454.042 488.5 448.511 488.5C442.98 488.5 438.5 484.021 438.5 478.5C438.5 472.979 442.98 468.5 448.511 468.5C454.042 468.5 458.523 472.979 458.523 478.5Z" fill="white" stroke="#0000FF" stroke-width="5"/>
</g>
<defs>
<clipPath id="clip0_4648_22566">
<rect width="1110" height="530" fill="white"/>
</clipPath>
</defs>
</svg>
